<svg width="900" height="300" viewBox="0 0 900 300" fill="none" xmlns="http://www.w3.org/2000/svg">
<g clip-path="url(#clip0_405_3)">
<g filter="url(#filter0_ddddii_405_3)">
<path d="M19 115L19 35C19 23.9543 27.9543 15 39 15L119 15C130.046 15 139 23.9543 139 35V115C139 126.046 130.046 135 119 135H39C27.9543 135 19 126.046 19 115Z" fill="#4089EC"/>
</g>
<g filter="url(#filter1_ddddii_405_3)">
<path d="M19 265L19 185C19 173.954 27.9543 165 39 165L119 165C130.046 165 139 173.954 139 185V265C139 276.046 130.046 285 119 285H39C27.9543 285 19 276.046 19 265Z" fill="#4089EC"/>
</g>
<g filter="url(#filter2_ddddii_405_3)">
<path d="M189 15L240.716 15C258.534 15 267.457 36.5428 254.858 49.1421L203.142 100.858C190.543 113.457 169 104.534 169 86.7157V35C169 23.9543 177.954 15 189 15Z" fill="#EB3669"/>
</g>
<g filter="url(#filter3_ddddii_405_3)">
<path d="M169 265L169 213.284C169 195.466 190.543 186.543 203.142 199.142L254.858 250.858C267.457 263.457 258.534 285 240.716 285H189C177.954 285 169 276.046 169 265Z" fill="#EB3669"/>
</g>
<g filter="url(#filter4_ddddii_405_3)">
<path d="M210.142 135.858L254.858 91.1421C267.457 78.5428 289 87.4662 289 105.284V194.716C289 212.534 267.457 221.457 254.858 208.858L210.142 164.142C202.332 156.332 202.332 143.668 210.142 135.858Z" fill="#F9A619"/>
</g>
<path d="M392.208 96.7676V107.842H359.073V96.7676H392.208ZM363.6 71.0156V135H349.273V71.0156H363.6ZM402.096 71.0156V135H387.813V71.0156H402.096ZM437.932 98.5254V135H424.221V87.4512H437.097L437.932 98.5254ZM452.127 87.0996L451.907 99.8877C451.321 99.7998 450.559 99.7266 449.622 99.668C448.684 99.5801 447.879 99.5361 447.205 99.5361C445.447 99.5361 443.923 99.7559 442.634 100.195C441.375 100.605 440.32 101.221 439.47 102.041C438.65 102.861 438.035 103.887 437.625 105.117C437.214 106.318 437.009 107.71 437.009 109.292L434.417 108.018C434.417 104.883 434.724 102.012 435.339 99.4043C435.955 96.7969 436.848 94.541 438.02 92.6367C439.192 90.7031 440.628 89.209 442.327 88.1543C444.026 87.0996 445.96 86.5723 448.128 86.5723C448.831 86.5723 449.548 86.6162 450.281 86.7041C451.013 86.792 451.629 86.9238 452.127 87.0996ZM484.36 87.4512V135H470.605V87.4512H484.36ZM469.77 75.1465C469.77 73.1543 470.473 71.5283 471.879 70.2686C473.285 68.9795 475.131 68.335 477.416 68.335C479.701 68.335 481.547 68.9795 482.953 70.2686C484.389 71.5283 485.107 73.1543 485.107 75.1465C485.107 77.1094 484.389 78.7354 482.953 80.0244C481.547 81.2842 479.701 81.9141 477.416 81.9141C475.131 81.9141 473.285 81.2842 471.879 80.0244C470.473 78.7354 469.77 77.1094 469.77 75.1465ZM534.083 124.365V67.5H547.882V135H535.489L534.083 124.365ZM504.464 111.797V110.874C504.464 107.271 504.859 103.989 505.65 101.03C506.471 98.042 507.657 95.4785 509.21 93.3398C510.792 91.1719 512.74 89.502 515.054 88.3301C517.369 87.1582 520.02 86.5723 523.009 86.5723C525.762 86.5723 528.165 87.1875 530.216 88.418C532.266 89.6191 534.01 91.3184 535.445 93.5156C536.91 95.6836 538.096 98.2471 539.005 101.206C539.913 104.136 540.601 107.314 541.07 110.742V112.324C540.631 115.605 539.942 118.667 539.005 121.509C538.096 124.351 536.91 126.855 535.445 129.023C534.01 131.162 532.252 132.847 530.172 134.077C528.121 135.278 525.704 135.879 522.921 135.879C519.932 135.879 517.281 135.278 514.967 134.077C512.681 132.876 510.762 131.191 509.21 129.023C507.657 126.855 506.471 124.307 505.65 121.377C504.859 118.447 504.464 115.254 504.464 111.797ZM518.175 110.874V111.797C518.175 113.672 518.306 115.415 518.57 117.026C518.863 118.638 519.332 120.059 519.976 121.289C520.621 122.52 521.471 123.486 522.525 124.189C523.58 124.863 524.869 125.2 526.392 125.2C528.443 125.2 530.128 124.731 531.446 123.794C532.764 122.827 533.761 121.494 534.434 119.795C535.108 118.096 535.46 116.118 535.489 113.862V109.248C535.489 107.373 535.299 105.688 534.918 104.194C534.537 102.7 533.966 101.44 533.204 100.415C532.471 99.3896 531.549 98.6133 530.435 98.0859C529.322 97.5293 528.004 97.251 526.48 97.251C524.986 97.251 523.712 97.6025 522.657 98.3057C521.602 98.9795 520.738 99.9316 520.064 101.162C519.42 102.393 518.936 103.843 518.614 105.513C518.321 107.153 518.175 108.94 518.175 110.874ZM567.195 111.709V110.786C567.195 107.3 567.693 104.092 568.689 101.162C569.685 98.2031 571.15 95.6396 573.083 93.4717C575.017 91.3037 577.39 89.6191 580.203 88.418C583.015 87.1875 586.238 86.5723 589.871 86.5723C593.562 86.5723 596.814 87.1875 599.626 88.418C602.468 89.6191 604.856 91.3037 606.789 93.4717C608.723 95.6396 610.188 98.2031 611.184 101.162C612.18 104.092 612.678 107.3 612.678 110.786V111.709C612.678 115.166 612.18 118.374 611.184 121.333C610.188 124.263 608.723 126.826 606.789 129.023C604.856 131.191 602.483 132.876 599.67 134.077C596.858 135.278 593.621 135.879 589.958 135.879C586.326 135.879 583.088 135.278 580.246 134.077C577.405 132.876 575.017 131.191 573.083 129.023C571.15 126.826 569.685 124.263 568.689 121.333C567.693 118.374 567.195 115.166 567.195 111.709ZM580.95 110.786V111.709C580.95 113.584 581.096 115.342 581.389 116.982C581.711 118.623 582.224 120.059 582.927 121.289C583.63 122.52 584.553 123.486 585.696 124.189C586.868 124.863 588.288 125.2 589.958 125.2C591.628 125.2 593.035 124.863 594.177 124.189C595.32 123.486 596.243 122.52 596.946 121.289C597.649 120.059 598.147 118.623 598.44 116.982C598.762 115.342 598.923 113.584 598.923 111.709V110.786C598.923 108.94 598.762 107.212 598.44 105.601C598.147 103.96 597.649 102.51 596.946 101.25C596.243 99.9902 595.305 99.0088 594.133 98.3057C592.991 97.6025 591.57 97.251 589.871 97.251C588.23 97.251 586.838 97.6025 585.696 98.3057C584.553 99.0088 583.63 99.9902 582.927 101.25C582.224 102.51 581.711 103.96 581.389 105.601C581.096 107.212 580.95 108.94 580.95 110.786ZM645.658 129.507L658.095 87.4512H672.86L653.744 142.119C653.334 143.32 652.777 144.609 652.074 145.986C651.4 147.363 650.478 148.682 649.306 149.941C648.163 151.201 646.698 152.227 644.911 153.018C643.124 153.809 640.927 154.204 638.319 154.204C637.001 154.204 635.976 154.131 635.243 153.984C634.54 153.867 633.603 153.662 632.431 153.369L632.387 143.394C632.768 143.394 633.104 143.394 633.397 143.394C633.72 143.423 634.042 143.438 634.364 143.438C636.005 143.438 637.323 143.262 638.319 142.91C639.345 142.559 640.136 142.031 640.692 141.328C641.278 140.654 641.747 139.79 642.099 138.735L645.658 129.507ZM641.483 87.4512L651.327 121.289L652.997 135.835L643.725 136.318L626.718 87.4512H641.483ZM363.6 176.016V240H349.273V176.016H363.6ZM401.832 176.016L376.783 208.008L362.193 223.828L359.601 210.513L369.225 196.714L384.254 176.016H401.832ZM385.221 240L367.555 210.776L378.453 202.295L402.184 240H385.221ZM431.516 172.5V240H417.805V172.5H431.516ZM429.714 214.556L426.287 214.644C426.287 211.304 426.697 208.242 427.517 205.459C428.367 202.646 429.568 200.2 431.121 198.12C432.673 196.04 434.534 194.429 436.702 193.286C438.899 192.144 441.316 191.572 443.953 191.572C446.296 191.572 448.435 191.909 450.369 192.583C452.302 193.257 453.972 194.326 455.379 195.791C456.785 197.256 457.869 199.175 458.63 201.548C459.392 203.921 459.773 206.807 459.773 210.205V240H445.974V210.117C445.974 208.096 445.681 206.514 445.095 205.371C444.539 204.229 443.718 203.423 442.634 202.954C441.58 202.485 440.291 202.251 438.767 202.251C436.98 202.251 435.501 202.573 434.329 203.218C433.157 203.833 432.234 204.697 431.56 205.811C430.886 206.924 430.403 208.228 430.11 209.722C429.846 211.216 429.714 212.827 429.714 214.556ZM506.069 228.662V208.271C506.069 206.836 505.849 205.605 505.409 204.58C504.97 203.555 504.281 202.749 503.344 202.163C502.406 201.577 501.191 201.284 499.696 201.284C498.437 201.284 497.338 201.504 496.401 201.943C495.492 202.383 494.789 203.013 494.291 203.833C493.822 204.653 493.588 205.664 493.588 206.865H479.877C479.877 204.727 480.361 202.734 481.327 200.889C482.294 199.043 483.671 197.417 485.458 196.011C487.275 194.604 489.443 193.521 491.962 192.759C494.482 191.968 497.309 191.572 500.444 191.572C504.164 191.572 507.475 192.202 510.375 193.462C513.305 194.692 515.619 196.553 517.319 199.043C519.018 201.504 519.867 204.609 519.867 208.359V228.267C519.867 231.138 520.029 233.394 520.351 235.034C520.702 236.646 521.2 238.052 521.845 239.253V240H508.002C507.358 238.623 506.874 236.924 506.552 234.902C506.23 232.852 506.069 230.771 506.069 228.662ZM507.782 210.996L507.87 218.555H501.059C499.535 218.555 498.217 218.745 497.104 219.126C496.02 219.507 495.141 220.034 494.467 220.708C493.793 221.353 493.295 222.114 492.973 222.993C492.68 223.843 492.533 224.78 492.533 225.806C492.533 226.772 492.768 227.651 493.237 228.442C493.705 229.204 494.35 229.805 495.17 230.244C495.99 230.684 496.943 230.903 498.027 230.903C499.814 230.903 501.337 230.552 502.597 229.849C503.886 229.146 504.882 228.296 505.585 227.3C506.288 226.274 506.64 225.322 506.64 224.443L509.936 230.156C509.408 231.328 508.764 232.544 508.002 233.804C507.24 235.034 506.274 236.191 505.102 237.275C503.93 238.33 502.509 239.194 500.839 239.868C499.198 240.542 497.221 240.879 494.906 240.879C491.918 240.879 489.208 240.278 486.777 239.077C484.345 237.847 482.397 236.162 480.932 234.023C479.496 231.885 478.779 229.424 478.779 226.641C478.779 224.15 479.233 221.938 480.141 220.005C481.049 218.071 482.411 216.431 484.228 215.083C486.073 213.735 488.388 212.725 491.171 212.051C493.954 211.348 497.206 210.996 500.927 210.996H507.782ZM554.473 202.603V240H540.719V192.451H553.638L554.473 202.603ZM552.672 214.556L549.244 214.644C549.244 211.069 549.683 207.861 550.562 205.02C551.441 202.178 552.686 199.761 554.298 197.769C555.938 195.747 557.887 194.209 560.142 193.154C562.428 192.1 564.947 191.572 567.701 191.572C569.928 191.572 571.964 191.895 573.809 192.539C575.655 193.184 577.237 194.224 578.555 195.659C579.903 197.065 580.929 198.94 581.632 201.284C582.335 203.599 582.686 206.455 582.686 209.854V240H568.887V209.81C568.887 207.817 568.609 206.279 568.053 205.195C567.496 204.111 566.676 203.35 565.592 202.91C564.537 202.471 563.248 202.251 561.724 202.251C560.113 202.251 558.736 202.573 557.594 203.218C556.451 203.833 555.513 204.697 554.781 205.811C554.049 206.924 553.507 208.228 553.155 209.722C552.833 211.216 552.672 212.827 552.672 214.556ZM631.487 229.365V172.5H645.286V240H632.893L631.487 229.365ZM601.868 216.797V215.874C601.868 212.271 602.263 208.989 603.054 206.03C603.874 203.042 605.061 200.479 606.614 198.34C608.196 196.172 610.144 194.502 612.458 193.33C614.773 192.158 617.424 191.572 620.413 191.572C623.166 191.572 625.569 192.188 627.62 193.418C629.67 194.619 631.413 196.318 632.849 198.516C634.314 200.684 635.5 203.247 636.409 206.206C637.317 209.136 638.005 212.314 638.474 215.742V217.324C638.035 220.605 637.346 223.667 636.409 226.509C635.5 229.351 634.314 231.855 632.849 234.023C631.413 236.162 629.656 237.847 627.576 239.077C625.525 240.278 623.108 240.879 620.325 240.879C617.336 240.879 614.685 240.278 612.371 239.077C610.085 237.876 608.166 236.191 606.614 234.023C605.061 231.855 603.874 229.307 603.054 226.377C602.263 223.447 601.868 220.254 601.868 216.797ZM615.579 215.874V216.797C615.579 218.672 615.71 220.415 615.974 222.026C616.267 223.638 616.736 225.059 617.38 226.289C618.025 227.52 618.874 228.486 619.929 229.189C620.984 229.863 622.273 230.2 623.796 230.2C625.847 230.2 627.532 229.731 628.85 228.794C630.168 227.827 631.164 226.494 631.838 224.795C632.512 223.096 632.864 221.118 632.893 218.862V214.248C632.893 212.373 632.703 210.688 632.322 209.194C631.941 207.7 631.37 206.44 630.608 205.415C629.875 204.39 628.953 203.613 627.839 203.086C626.726 202.529 625.408 202.251 623.884 202.251C622.39 202.251 621.116 202.603 620.061 203.306C619.006 203.979 618.142 204.932 617.468 206.162C616.824 207.393 616.34 208.843 616.018 210.513C615.725 212.153 615.579 213.94 615.579 215.874ZM691.757 228.662V208.271C691.757 206.836 691.537 205.605 691.098 204.58C690.658 203.555 689.97 202.749 689.032 202.163C688.095 201.577 686.879 201.284 685.385 201.284C684.125 201.284 683.026 201.504 682.089 201.943C681.181 202.383 680.478 203.013 679.979 203.833C679.511 204.653 679.276 205.664 679.276 206.865H665.565C665.565 204.727 666.049 202.734 667.016 200.889C667.982 199.043 669.359 197.417 671.146 196.011C672.963 194.604 675.131 193.521 677.65 192.759C680.17 191.968 682.997 191.572 686.132 191.572C689.853 191.572 693.163 192.202 696.063 193.462C698.993 194.692 701.308 196.553 703.007 199.043C704.706 201.504 705.556 204.609 705.556 208.359V228.267C705.556 231.138 705.717 233.394 706.039 235.034C706.391 236.646 706.889 238.052 707.533 239.253V240H693.69C693.046 238.623 692.562 236.924 692.24 234.902C691.918 232.852 691.757 230.771 691.757 228.662ZM693.471 210.996L693.559 218.555H686.747C685.224 218.555 683.905 218.745 682.792 219.126C681.708 219.507 680.829 220.034 680.155 220.708C679.481 221.353 678.983 222.114 678.661 222.993C678.368 223.843 678.222 224.78 678.222 225.806C678.222 226.772 678.456 227.651 678.925 228.442C679.394 229.204 680.038 229.805 680.858 230.244C681.679 230.684 682.631 230.903 683.715 230.903C685.502 230.903 687.025 230.552 688.285 229.849C689.574 229.146 690.57 228.296 691.273 227.3C691.977 226.274 692.328 225.322 692.328 224.443L695.624 230.156C695.097 231.328 694.452 232.544 693.69 233.804C692.929 235.034 691.962 236.191 690.79 237.275C689.618 238.33 688.197 239.194 686.527 239.868C684.887 240.542 682.909 240.879 680.595 240.879C677.606 240.879 674.896 240.278 672.465 239.077C670.033 237.847 668.085 236.162 666.62 234.023C665.185 231.885 664.467 229.424 664.467 226.641C664.467 224.15 664.921 221.938 665.829 220.005C666.737 218.071 668.1 216.431 669.916 215.083C671.762 213.735 674.076 212.725 676.859 212.051C679.643 211.348 682.895 210.996 686.615 210.996H693.471ZM740.513 172.456V240H726.758V172.456H740.513ZM770.704 192.451L750.005 216.357L739.063 227.344L733.57 218.071L742.447 206.602L754.18 192.451H770.704ZM756.202 240L742.798 218.159L752.642 210.469L771.934 240H756.202ZM812.737 228.662V208.271C812.737 206.836 812.517 205.605 812.077 204.58C811.638 203.555 810.949 202.749 810.012 202.163C809.074 201.577 807.859 201.284 806.364 201.284C805.105 201.284 804.006 201.504 803.069 201.943C802.16 202.383 801.457 203.013 800.959 203.833C800.49 204.653 800.256 205.664 800.256 206.865H786.545C786.545 204.727 787.029 202.734 787.995 200.889C788.962 199.043 790.339 197.417 792.126 196.011C793.943 194.604 796.111 193.521 798.63 192.759C801.15 191.968 803.977 191.572 807.112 191.572C810.832 191.572 814.143 192.202 817.043 193.462C819.973 194.692 822.287 196.553 823.987 199.043C825.686 201.504 826.535 204.609 826.535 208.359V228.267C826.535 231.138 826.696 233.394 827.019 235.034C827.37 236.646 827.868 238.052 828.513 239.253V240H814.67C814.026 238.623 813.542 236.924 813.22 234.902C812.898 232.852 812.737 230.771 812.737 228.662ZM814.45 210.996L814.538 218.555H807.727C806.203 218.555 804.885 218.745 803.772 219.126C802.688 219.507 801.809 220.034 801.135 220.708C800.461 221.353 799.963 222.114 799.641 222.993C799.348 223.843 799.201 224.78 799.201 225.806C799.201 226.772 799.436 227.651 799.904 228.442C800.373 229.204 801.018 229.805 801.838 230.244C802.658 230.684 803.611 230.903 804.695 230.903C806.482 230.903 808.005 230.552 809.265 229.849C810.554 229.146 811.55 228.296 812.253 227.3C812.956 226.274 813.308 225.322 813.308 224.443L816.604 230.156C816.076 231.328 815.432 232.544 814.67 233.804C813.908 235.034 812.942 236.191 811.77 237.275C810.598 238.33 809.177 239.194 807.507 239.868C805.866 240.542 803.889 240.879 801.574 240.879C798.586 240.879 795.876 240.278 793.445 239.077C791.013 237.847 789.065 236.162 787.6 234.023C786.164 231.885 785.446 229.424 785.446 226.641C785.446 224.15 785.901 221.938 786.809 220.005C787.717 218.071 789.079 216.431 790.896 215.083C792.741 213.735 795.056 212.725 797.839 212.051C800.622 211.348 803.874 210.996 807.595 210.996H814.45ZM861.449 203.525V240H847.738V192.451H860.614L861.449 203.525ZM875.643 192.1L875.424 204.888C874.838 204.8 874.076 204.727 873.138 204.668C872.201 204.58 871.395 204.536 870.721 204.536C868.964 204.536 867.44 204.756 866.151 205.195C864.891 205.605 863.837 206.221 862.987 207.041C862.167 207.861 861.552 208.887 861.141 210.117C860.731 211.318 860.526 212.71 860.526 214.292L857.933 213.018C857.933 209.883 858.241 207.012 858.856 204.404C859.471 201.797 860.365 199.541 861.537 197.637C862.709 195.703 864.144 194.209 865.844 193.154C867.543 192.1 869.476 191.572 871.644 191.572C872.347 191.572 873.065 191.616 873.798 191.704C874.53 191.792 875.145 191.924 875.643 192.1Z" fill="white"/>
</g>
<defs>
<filter id="filter0_ddddii_405_3" x="15" y="11" width="127" height="127" filterUnits="userSpaceOnUse" color-interpolation-filters="sRGB">
<feFlood flood-opacity="0" result="BackgroundImageFix"/>
<feColorMatrix in="SourceAlpha" type="matrix" values="0 0 0 0 0 0 0 0 0 0 0 0 0 0 0 0 0 0 127 0" result="hardAlpha"/>
<feOffset dx="-1" dy="-1"/>
<feGaussianBlur stdDeviation="1.5"/>
<feColorMatrix type="matrix" values="0 0 0 0 0.101961 0 0 0 0 0.215686 0 0 0 0 0.368627 0 0 0 0.9 0"/>
<feBlend mode="normal" in2="BackgroundImageFix" result="effect1_dropShadow_405_3"/>
<feColorMatrix in="SourceAlpha" type="matrix" values="0 0 0 0 0 0 0 0 0 0 0 0 0 0 0 0 0 0 127 0" result="hardAlpha"/>
<feOffset dx="1" dy="1"/>
<feGaussianBlur stdDeviation="1"/>
<feColorMatrix type="matrix" values="0 0 0 0 0.4 0 0 0 0 0.858824 0 0 0 0 1 0 0 0 0.9 0"/>
<feBlend mode="normal" in2="effect1_dropShadow_405_3" result="effect2_dropShadow_405_3"/>
<feColorMatrix in="SourceAlpha" type="matrix" values="0 0 0 0 0 0 0 0 0 0 0 0 0 0 0 0 0 0 127 0" result="hardAlpha"/>
<feOffset dx="-1" dy="1"/>
<feGaussianBlur stdDeviation="1"/>
<feColorMatrix type="matrix" values="0 0 0 0 0.101961 0 0 0 0 0.215686 0 0 0 0 0.368627 0 0 0 0.2 0"/>
<feBlend mode="normal" in2="effect2_dropShadow_405_3" result="effect3_dropShadow_405_3"/>
<feColorMatrix in="SourceAlpha" type="matrix" values="0 0 0 0 0 0 0 0 0 0 0 0 0 0 0 0 0 0 127 0" result="hardAlpha"/>
<feOffset dx="1" dy="-1"/>
<feGaussianBlur stdDeviation="1"/>
<feColorMatrix type="matrix" values="0 0 0 0 0.101961 0 0 0 0 0.215686 0 0 0 0 0.368627 0 0 0 0.2 0"/>
<feBlend mode="normal" in2="effect3_dropShadow_405_3" result="effect4_dropShadow_405_3"/>
<feBlend mode="normal" in="SourceGraphic" in2="effect4_dropShadow_405_3" result="shape"/>
<feColorMatrix in="SourceAlpha" type="matrix" values="0 0 0 0 0 0 0 0 0 0 0 0 0 0 0 0 0 0 127 0" result="hardAlpha"/>
<feOffset dx="1" dy="1"/>
<feGaussianBlur stdDeviation="1"/>
<feComposite in2="hardAlpha" operator="arithmetic" k2="-1" k3="1"/>
<feColorMatrix type="matrix" values="0 0 0 0 0.101961 0 0 0 0 0.215686 0 0 0 0 0.368627 0 0 0 0.5 0"/>
<feBlend mode="normal" in2="shape" result="effect5_innerShadow_405_3"/>
<feColorMatrix in="SourceAlpha" type="matrix" values="0 0 0 0 0 0 0 0 0 0 0 0 0 0 0 0 0 0 127 0" result="hardAlpha"/>
<feOffset dx="-1" dy="-1"/>
<feGaussianBlur stdDeviation="1"/>
<feComposite in2="hardAlpha" operator="arithmetic" k2="-1" k3="1"/>
<feColorMatrix type="matrix" values="0 0 0 0 0.4 0 0 0 0 0.858824 0 0 0 0 1 0 0 0 0.3 0"/>
<feBlend mode="normal" in2="effect5_innerShadow_405_3" result="effect6_innerShadow_405_3"/>
</filter>
<filter id="filter1_ddddii_405_3" x="15" y="161" width="127" height="127" filterUnits="userSpaceOnUse" color-interpolation-filters="sRGB">
<feFlood flood-opacity="0" result="BackgroundImageFix"/>
<feColorMatrix in="SourceAlpha" type="matrix" values="0 0 0 0 0 0 0 0 0 0 0 0 0 0 0 0 0 0 127 0" result="hardAlpha"/>
<feOffset dx="-1" dy="-1"/>
<feGaussianBlur stdDeviation="1.5"/>
<feColorMatrix type="matrix" values="0 0 0 0 0.101961 0 0 0 0 0.215686 0 0 0 0 0.368627 0 0 0 0.9 0"/>
<feBlend mode="normal" in2="BackgroundImageFix" result="effect1_dropShadow_405_3"/>
<feColorMatrix in="SourceAlpha" type="matrix" values="0 0 0 0 0 0 0 0 0 0 0 0 0 0 0 0 0 0 127 0" result="hardAlpha"/>
<feOffset dx="1" dy="1"/>
<feGaussianBlur stdDeviation="1"/>
<feColorMatrix type="matrix" values="0 0 0 0 0.4 0 0 0 0 0.858824 0 0 0 0 1 0 0 0 0.9 0"/>
<feBlend mode="normal" in2="effect1_dropShadow_405_3" result="effect2_dropShadow_405_3"/>
<feColorMatrix in="SourceAlpha" type="matrix" values="0 0 0 0 0 0 0 0 0 0 0 0 0 0 0 0 0 0 127 0" result="hardAlpha"/>
<feOffset dx="-1" dy="1"/>
<feGaussianBlur stdDeviation="1"/>
<feColorMatrix type="matrix" values="0 0 0 0 0.101961 0 0 0 0 0.215686 0 0 0 0 0.368627 0 0 0 0.2 0"/>
<feBlend mode="normal" in2="effect2_dropShadow_405_3" result="effect3_dropShadow_405_3"/>
<feColorMatrix in="SourceAlpha" type="matrix" values="0 0 0 0 0 0 0 0 0 0 0 0 0 0 0 0 0 0 127 0" result="hardAlpha"/>
<feOffset dx="1" dy="-1"/>
<feGaussianBlur stdDeviation="1"/>
<feColorMatrix type="matrix" values="0 0 0 0 0.101961 0 0 0 0 0.215686 0 0 0 0 0.368627 0 0 0 0.2 0"/>
<feBlend mode="normal" in2="effect3_dropShadow_405_3" result="effect4_dropShadow_405_3"/>
<feBlend mode="normal" in="SourceGraphic" in2="effect4_dropShadow_405_3" result="shape"/>
<feColorMatrix in="SourceAlpha" type="matrix" values="0 0 0 0 0 0 0 0 0 0 0 0 0 0 0 0 0 0 127 0" result="hardAlpha"/>
<feOffset dx="1" dy="1"/>
<feGaussianBlur stdDeviation="1"/>
<feComposite in2="hardAlpha" operator="arithmetic" k2="-1" k3="1"/>
<feColorMatrix type="matrix" values="0 0 0 0 0.101961 0 0 0 0 0.215686 0 0 0 0 0.368627 0 0 0 0.5 0"/>
<feBlend mode="normal" in2="shape" result="effect5_innerShadow_405_3"/>
<feColorMatrix in="SourceAlpha" type="matrix" values="0 0 0 0 0 0 0 0 0 0 0 0 0 0 0 0 0 0 127 0" result="hardAlpha"/>
<feOffset dx="-1" dy="-1"/>
<feGaussianBlur stdDeviation="1"/>
<feComposite in2="hardAlpha" operator="arithmetic" k2="-1" k3="1"/>
<feColorMatrix type="matrix" values="0 0 0 0 0.4 0 0 0 0 0.858824 0 0 0 0 1 0 0 0 0.3 0"/>
<feBlend mode="normal" in2="effect5_innerShadow_405_3" result="effect6_innerShadow_405_3"/>
</filter>
<filter id="filter2_ddddii_405_3" x="165" y="11" width="98.7559" height="98.7559" filterUnits="userSpaceOnUse" color-interpolation-filters="sRGB">
<feFlood flood-opacity="0" result="BackgroundImageFix"/>
<feColorMatrix in="SourceAlpha" type="matrix" values="0 0 0 0 0 0 0 0 0 0 0 0 0 0 0 0 0 0 127 0" result="hardAlpha"/>
<feOffset dx="-1" dy="-1"/>
<feGaussianBlur stdDeviation="1.5"/>
<feColorMatrix type="matrix" values="0 0 0 0 0.368627 0 0 0 0 0.0862745 0 0 0 0 0.164706 0 0 0 0.9 0"/>
<feBlend mode="normal" in2="BackgroundImageFix" result="effect1_dropShadow_405_3"/>
<feColorMatrix in="SourceAlpha" type="matrix" values="0 0 0 0 0 0 0 0 0 0 0 0 0 0 0 0 0 0 127 0" result="hardAlpha"/>
<feOffset dx="1" dy="1"/>
<feGaussianBlur stdDeviation="1"/>
<feColorMatrix type="matrix" values="0 0 0 0 1 0 0 0 0 0.337255 0 0 0 0 0.658824 0 0 0 0.9 0"/>
<feBlend mode="normal" in2="effect1_dropShadow_405_3" result="effect2_dropShadow_405_3"/>
<feColorMatrix in="SourceAlpha" type="matrix" values="0 0 0 0 0 0 0 0 0 0 0 0 0 0 0 0 0 0 127 0" result="hardAlpha"/>
<feOffset dx="-1" dy="1"/>
<feGaussianBlur stdDeviation="1"/>
<feColorMatrix type="matrix" values="0 0 0 0 0.368627 0 0 0 0 0.0862745 0 0 0 0 0.164706 0 0 0 0.2 0"/>
<feBlend mode="normal" in2="effect2_dropShadow_405_3" result="effect3_dropShadow_405_3"/>
<feColorMatrix in="SourceAlpha" type="matrix" values="0 0 0 0 0 0 0 0 0 0 0 0 0 0 0 0 0 0 127 0" result="hardAlpha"/>
<feOffset dx="1" dy="-1"/>
<feGaussianBlur stdDeviation="1"/>
<feColorMatrix type="matrix" values="0 0 0 0 0.368627 0 0 0 0 0.0862745 0 0 0 0 0.164706 0 0 0 0.2 0"/>
<feBlend mode="normal" in2="effect3_dropShadow_405_3" result="effect4_dropShadow_405_3"/>
<feBlend mode="normal" in="SourceGraphic" in2="effect4_dropShadow_405_3" result="shape"/>
<feColorMatrix in="SourceAlpha" type="matrix" values="0 0 0 0 0 0 0 0 0 0 0 0 0 0 0 0 0 0 127 0" result="hardAlpha"/>
<feOffset dx="1" dy="1"/>
<feGaussianBlur stdDeviation="1"/>
<feComposite in2="hardAlpha" operator="arithmetic" k2="-1" k3="1"/>
<feColorMatrix type="matrix" values="0 0 0 0 0.368627 0 0 0 0 0.0862745 0 0 0 0 0.164706 0 0 0 0.5 0"/>
<feBlend mode="normal" in2="shape" result="effect5_innerShadow_405_3"/>
<feColorMatrix in="SourceAlpha" type="matrix" values="0 0 0 0 0 0 0 0 0 0 0 0 0 0 0 0 0 0 127 0" result="hardAlpha"/>
<feOffset dx="-1" dy="-1"/>
<feGaussianBlur stdDeviation="1"/>
<feComposite in2="hardAlpha" operator="arithmetic" k2="-1" k3="1"/>
<feColorMatrix type="matrix" values="0 0 0 0 1 0 0 0 0 0.337255 0 0 0 0 0.658824 0 0 0 0.3 0"/>
<feBlend mode="normal" in2="effect5_innerShadow_405_3" result="effect6_innerShadow_405_3"/>
</filter>
<filter id="filter3_ddddii_405_3" x="165" y="189.244" width="98.7559" height="98.7559" filterUnits="userSpaceOnUse" color-interpolation-filters="sRGB">
<feFlood flood-opacity="0" result="BackgroundImageFix"/>
<feColorMatrix in="SourceAlpha" type="matrix" values="0 0 0 0 0 0 0 0 0 0 0 0 0 0 0 0 0 0 127 0" result="hardAlpha"/>
<feOffset dx="-1" dy="-1"/>
<feGaussianBlur stdDeviation="1.5"/>
<feColorMatrix type="matrix" values="0 0 0 0 0.831373 0 0 0 0 0.192157 0 0 0 0 0.372549 0 0 0 0.9 0"/>
<feBlend mode="normal" in2="BackgroundImageFix" result="effect1_dropShadow_405_3"/>
<feColorMatrix in="SourceAlpha" type="matrix" values="0 0 0 0 0 0 0 0 0 0 0 0 0 0 0 0 0 0 127 0" result="hardAlpha"/>
<feOffset dx="1" dy="1"/>
<feGaussianBlur stdDeviation="1"/>
<feColorMatrix type="matrix" values="0 0 0 0 1 0 0 0 0 0.231373 0 0 0 0 0.454902 0 0 0 0.9 0"/>
<feBlend mode="normal" in2="effect1_dropShadow_405_3" result="effect2_dropShadow_405_3"/>
<feColorMatrix in="SourceAlpha" type="matrix" values="0 0 0 0 0 0 0 0 0 0 0 0 0 0 0 0 0 0 127 0" result="hardAlpha"/>
<feOffset dx="-1" dy="1"/>
<feGaussianBlur stdDeviation="1"/>
<feColorMatrix type="matrix" values="0 0 0 0 0.831373 0 0 0 0 0.192157 0 0 0 0 0.372549 0 0 0 0.2 0"/>
<feBlend mode="normal" in2="effect2_dropShadow_405_3" result="effect3_dropShadow_405_3"/>
<feColorMatrix in="SourceAlpha" type="matrix" values="0 0 0 0 0 0 0 0 0 0 0 0 0 0 0 0 0 0 127 0" result="hardAlpha"/>
<feOffset dx="1" dy="-1"/>
<feGaussianBlur stdDeviation="1"/>
<feColorMatrix type="matrix" values="0 0 0 0 0.831373 0 0 0 0 0.192157 0 0 0 0 0.372549 0 0 0 0.2 0"/>
<feBlend mode="normal" in2="effect3_dropShadow_405_3" result="effect4_dropShadow_405_3"/>
<feBlend mode="normal" in="SourceGraphic" in2="effect4_dropShadow_405_3" result="shape"/>
<feColorMatrix in="SourceAlpha" type="matrix" values="0 0 0 0 0 0 0 0 0 0 0 0 0 0 0 0 0 0 127 0" result="hardAlpha"/>
<feOffset dx="1" dy="1"/>
<feGaussianBlur stdDeviation="1"/>
<feComposite in2="hardAlpha" operator="arithmetic" k2="-1" k3="1"/>
<feColorMatrix type="matrix" values="0 0 0 0 0.831373 0 0 0 0 0.192157 0 0 0 0 0.372549 0 0 0 0.5 0"/>
<feBlend mode="normal" in2="shape" result="effect5_innerShadow_405_3"/>
<feColorMatrix in="SourceAlpha" type="matrix" values="0 0 0 0 0 0 0 0 0 0 0 0 0 0 0 0 0 0 127 0" result="hardAlpha"/>
<feOffset dx="-1" dy="-1"/>
<feGaussianBlur stdDeviation="1"/>
<feComposite in2="hardAlpha" operator="arithmetic" k2="-1" k3="1"/>
<feColorMatrix type="matrix" values="0 0 0 0 1 0 0 0 0 0.231373 0 0 0 0 0.454902 0 0 0 0.3 0"/>
<feBlend mode="normal" in2="effect5_innerShadow_405_3" result="effect6_innerShadow_405_3"/>
</filter>
<filter id="filter4_ddddii_405_3" x="200.284" y="81.2441" width="91.7158" height="136.512" filterUnits="userSpaceOnUse" color-interpolation-filters="sRGB">
<feFlood flood-opacity="0" result="BackgroundImageFix"/>
<feColorMatrix in="SourceAlpha" type="matrix" values="0 0 0 0 0 0 0 0 0 0 0 0 0 0 0 0 0 0 127 0" result="hardAlpha"/>
<feOffset dx="-1" dy="-1"/>
<feGaussianBlur stdDeviation="1.5"/>
<feColorMatrix type="matrix" values="0 0 0 0 0.392157 0 0 0 0 0.258824 0 0 0 0 0.0392157 0 0 0 0.9 0"/>
<feBlend mode="normal" in2="BackgroundImageFix" result="effect1_dropShadow_405_3"/>
<feColorMatrix in="SourceAlpha" type="matrix" values="0 0 0 0 0 0 0 0 0 0 0 0 0 0 0 0 0 0 127 0" result="hardAlpha"/>
<feOffset dx="1" dy="1"/>
<feGaussianBlur stdDeviation="1"/>
<feColorMatrix type="matrix" values="0 0 0 0 1 0 0 0 0 1 0 0 0 0 0.156863 0 0 0 0.9 0"/>
<feBlend mode="normal" in2="effect1_dropShadow_405_3" result="effect2_dropShadow_405_3"/>
<feColorMatrix in="SourceAlpha" type="matrix" values="0 0 0 0 0 0 0 0 0 0 0 0 0 0 0 0 0 0 127 0" result="hardAlpha"/>
<feOffset dx="-1" dy="1"/>
<feGaussianBlur stdDeviation="1"/>
<feColorMatrix type="matrix" values="0 0 0 0 0.392157 0 0 0 0 0.258824 0 0 0 0 0.0392157 0 0 0 0.2 0"/>
<feBlend mode="normal" in2="effect2_dropShadow_405_3" result="effect3_dropShadow_405_3"/>
<feColorMatrix in="SourceAlpha" type="matrix" values="0 0 0 0 0 0 0 0 0 0 0 0 0 0 0 0 0 0 127 0" result="hardAlpha"/>
<feOffset dx="1" dy="-1"/>
<feGaussianBlur stdDeviation="1"/>
<feColorMatrix type="matrix" values="0 0 0 0 0.392157 0 0 0 0 0.258824 0 0 0 0 0.0392157 0 0 0 0.2 0"/>
<feBlend mode="normal" in2="effect3_dropShadow_405_3" result="effect4_dropShadow_405_3"/>
<feBlend mode="normal" in="SourceGraphic" in2="effect4_dropShadow_405_3" result="shape"/>
<feColorMatrix in="SourceAlpha" type="matrix" values="0 0 0 0 0 0 0 0 0 0 0 0 0 0 0 0 0 0 127 0" result="hardAlpha"/>
<feOffset dx="1" dy="1"/>
<feGaussianBlur stdDeviation="1"/>
<feComposite in2="hardAlpha" operator="arithmetic" k2="-1" k3="1"/>
<feColorMatrix type="matrix" values="0 0 0 0 0.392157 0 0 0 0 0.258824 0 0 0 0 0.0392157 0 0 0 0.5 0"/>
<feBlend mode="normal" in2="shape" result="effect5_innerShadow_405_3"/>
<feColorMatrix in="SourceAlpha" type="matrix" values="0 0 0 0 0 0 0 0 0 0 0 0 0 0 0 0 0 0 127 0" result="hardAlpha"/>
<feOffset dx="-1" dy="-1"/>
<feGaussianBlur stdDeviation="1"/>
<feComposite in2="hardAlpha" operator="arithmetic" k2="-1" k3="1"/>
<feColorMatrix type="matrix" values="0 0 0 0 1 0 0 0 0 1 0 0 0 0 0.156863 0 0 0 0.3 0"/>
<feBlend mode="normal" in2="effect5_innerShadow_405_3" result="effect6_innerShadow_405_3"/>
</filter>
<clipPath id="clip0_405_3">
<rect width="900" height="300" fill="white"/>
</clipPath>
</defs>
</svg>
